<svg width="125" height="44" viewBox="0 0 125 44" fill="none" xmlns="http://www.w3.org/2000/svg">
<g clip-path="url(#clip0)">
<path d="M17.8203 40.863C17.8368 41.2561 17.7111 41.642 17.4661 41.9508C17.3809 42.076 17.268 42.1803 17.1362 42.2556C17.0044 42.331 16.8571 42.3756 16.7054 42.3858H1.29847C1.14153 42.3859 0.987196 42.346 0.850191 42.2698C0.713185 42.1936 0.598085 42.0838 0.515881 41.9508C0.306507 41.6273 0.202673 41.2474 0.218586 40.863C0.20717 40.5077 0.311449 40.1582 0.515881 39.8667C0.601498 39.7388 0.718017 39.6343 0.854749 39.5629C0.991481 39.4914 1.14405 39.4553 1.29847 39.4577H2.81993C2.04556 38.9878 1.3808 38.3589 0.870014 37.613C0.264914 36.7141 -0.0409684 35.6487 -0.00438691 34.5674C-0.0239696 33.4461 0.341564 32.3517 1.03178 31.4652C1.72469 30.5819 2.64902 29.906 3.70307 29.5117C2.55247 28.9669 1.58072 28.1084 0.900618 27.0361C0.319647 26.1038 0.00663355 25.0309 -0.00438691 23.9339C-0.0049733 22.8509 0.281562 21.7868 0.826295 20.8492C1.40703 19.8575 2.24712 19.041 3.25713 18.4867C4.44209 17.8538 5.77334 17.5417 7.11761 17.5817H16.6923C16.8468 17.5929 16.9964 17.6406 17.1287 17.7208C17.261 17.801 17.3722 17.9114 17.453 18.0429C17.6909 18.3479 17.82 18.7229 17.8203 19.1089C17.8314 19.4972 17.7061 19.8772 17.4661 20.1835C17.3816 20.3095 17.2689 20.4142 17.137 20.4897C17.005 20.5652 16.8573 20.6093 16.7054 20.6186H7.12198C6.29241 20.5923 5.47141 20.7924 4.74798 21.1973C4.13489 21.5502 3.62888 22.0613 3.28336 22.6766C2.94859 23.2382 2.77194 23.8792 2.77194 24.5322C2.77194 25.1852 2.94859 25.8262 3.28336 26.3878C3.64005 26.9877 4.13636 27.4936 4.7305 27.8628C5.41137 28.2753 6.19849 28.4809 6.99519 28.4545H16.736C16.9034 28.4484 17.069 28.4902 17.2132 28.5751C17.3573 28.6599 17.474 28.7842 17.5492 28.9331C17.7259 29.2621 17.8161 29.6303 17.8115 30.0034C17.809 30.359 17.719 30.7085 17.5492 31.0215C17.4765 31.1736 17.3609 31.3015 17.2166 31.3895C17.0722 31.4776 16.9053 31.522 16.736 31.5175H7.04766C6.27021 31.5105 5.50398 31.7023 4.82231 32.0744C4.20815 32.4067 3.69022 32.8906 3.31834 33.4797C2.96241 34.0503 2.77598 34.7094 2.78058 35.381C2.78187 36.0494 2.9614 36.7055 3.30085 37.2823C3.65303 37.8926 4.1575 38.4021 4.76547 38.7616C5.48299 39.1646 6.29865 39.3618 7.12198 39.3316H16.6967C16.8509 39.3438 17.0001 39.3919 17.1322 39.472C17.2644 39.5521 17.3757 39.662 17.4574 39.7927C17.6946 40.0994 17.8223 40.4761 17.8203 40.863Z" fill="#CCCCCC"/>
<path d="M26.3064 13.9792C26.318 14.3314 26.222 14.6789 26.0309 14.9756C25.895 15.127 25.724 15.243 25.5327 15.3135C25.3415 15.3841 25.1357 15.407 24.9335 15.3802C24.6131 15.3865 24.2957 15.3179 24.0067 15.1801C23.8778 15.12 23.7701 15.0228 23.6975 14.9009C23.625 14.7791 23.5911 14.6383 23.6001 14.497C23.59 13.9238 23.4303 13.363 23.1367 12.8698C22.7723 12.2696 22.3047 11.7379 21.7551 11.2991C21.1055 10.7715 20.388 10.3325 19.6216 9.99387C18.7559 9.61045 17.8452 9.3371 16.9109 9.18027L1.88871 15.3062C1.76372 15.3746 1.62458 15.4133 1.48211 15.4194C1.34189 15.4165 1.20371 15.3853 1.07596 15.3277C0.948202 15.2701 0.833522 15.1873 0.738868 15.0844C0.510898 14.8566 0.328419 14.5879 0.201112 14.2925C0.0743367 14.0194 0.0058575 13.7231 0 13.4223C0.00203117 13.2181 0.051404 13.0171 0.144275 12.835C0.190112 12.7396 0.257976 12.6564 0.34232 12.5921C0.426664 12.5278 0.525096 12.4843 0.629568 12.4651L13.5445 7.55306L0.629568 3.15871C0.423297 3.09747 0.249183 2.95854 0.144275 2.77149C0.0506198 2.59433 0.00113814 2.39736 0 2.19718C0.00936865 1.90942 0.0778096 1.62662 0.201112 1.36617C0.328419 1.07074 0.510898 0.802041 0.738868 0.574317C0.839509 0.46838 0.960837 0.38402 1.09541 0.326411C1.22998 0.268803 1.37496 0.23916 1.52146 0.239303C1.64794 0.235802 1.77355 0.2611 1.88871 0.313267L16.994 5.96935C18.0083 6.33772 19.059 6.73075 20.1462 7.14843C21.1998 7.55142 22.2127 8.05254 23.1716 8.64512C24.0731 9.2021 24.8451 9.94367 25.4363 10.8205C26.0382 11.7627 26.3413 12.8633 26.3064 13.9792Z" fill="#CCCCCC"/>
<path d="M124.969 43.1907C124.972 43.3 124.951 43.4085 124.908 43.5091C124.865 43.6097 124.801 43.6999 124.72 43.7737C124.573 43.9204 124.373 44.0032 124.165 44.0043C124.058 44.0059 123.952 43.9864 123.853 43.9468C123.754 43.9072 123.664 43.8484 123.588 43.7737C123.51 43.6981 123.448 43.6074 123.407 43.5071C123.365 43.4068 123.345 43.2991 123.347 43.1907C123.349 43.088 123.371 42.9866 123.412 42.8924C123.453 42.7983 123.513 42.7133 123.588 42.6425C123.663 42.5665 123.753 42.5065 123.852 42.4661C123.951 42.4257 124.058 42.4058 124.165 42.4076C124.268 42.408 124.371 42.429 124.466 42.4693C124.562 42.5097 124.648 42.5686 124.72 42.6425C124.798 42.7118 124.86 42.7962 124.903 42.8906C124.945 42.985 124.968 43.0872 124.969 43.1907Z" fill="#CCCCCC"/>
<path d="M125 38.1264C125.023 38.7317 124.884 39.3322 124.598 39.8667C124.35 40.3033 123.977 40.6563 123.527 40.8804C123.052 41.1058 122.531 41.219 122.005 41.2111H120.466C119.943 41.2172 119.426 41.1041 118.954 40.8804C118.5 40.658 118.123 40.3048 117.874 39.8667C117.586 39.3327 117.447 38.7318 117.472 38.1264C117.464 37.7268 117.522 37.3286 117.642 36.9473C117.727 36.6616 117.868 36.3954 118.057 36.1641C118.113 36.0861 118.184 36.0208 118.267 35.9728C118.35 35.9247 118.443 35.895 118.538 35.8857C118.631 35.8876 118.723 35.9115 118.805 35.9553C118.901 36.0009 118.988 36.0627 119.063 36.138C119.131 36.2116 119.168 36.3079 119.168 36.4078C119.161 36.53 119.114 36.6466 119.032 36.7384C118.921 36.8837 118.83 37.0432 118.761 37.2127C118.662 37.4813 118.618 37.7666 118.63 38.0524C118.599 38.3016 118.625 38.5546 118.706 38.7924C118.787 39.0303 118.92 39.2471 119.097 39.4267C119.273 39.6064 119.488 39.7443 119.725 39.8302C119.962 39.9162 120.215 39.948 120.466 39.9233H122.005C122.258 39.9476 122.513 39.915 122.751 39.8278C122.989 39.7406 123.204 39.601 123.381 39.4196C123.557 39.2381 123.69 39.0194 123.77 38.7797C123.85 38.5399 123.874 38.2854 123.842 38.035C123.856 37.738 123.807 37.4414 123.697 37.1648C123.618 36.996 123.525 36.8344 123.417 36.6819C123.337 36.5845 123.291 36.4639 123.286 36.3382C123.283 36.232 123.319 36.1284 123.387 36.0467C123.451 35.9653 123.533 35.8998 123.627 35.8552C123.712 35.8099 123.807 35.786 123.903 35.7856C124 35.7962 124.094 35.8277 124.178 35.8781C124.262 35.9284 124.333 35.9963 124.388 36.0771C124.585 36.3178 124.733 36.594 124.825 36.8907C124.952 37.2902 125.011 37.7077 125 38.1264Z" fill="#CCCCCC"/>
<path d="M125 31.8786C125.002 32.4073 124.859 32.9264 124.585 33.3796C124.311 33.8316 123.932 34.2108 123.479 34.4847C123.038 34.7636 122.528 34.9142 122.005 34.9198H120.436C119.92 34.9229 119.414 34.7811 118.976 34.5108C118.524 34.2309 118.151 33.8417 117.891 33.3796C117.606 32.9239 117.455 32.398 117.454 31.8612C117.451 31.3327 117.59 30.8129 117.856 30.3558C118.117 29.9029 118.484 29.5205 118.928 29.242C119.373 28.9583 119.89 28.8073 120.418 28.8069H121.988C122.506 28.8128 123.012 28.9636 123.448 29.242C123.901 29.5214 124.281 29.903 124.559 30.3558C124.847 30.8118 125 31.3397 125 31.8786ZM123.842 31.8786C123.841 31.5694 123.75 31.2671 123.579 31.0084C123.412 30.7293 123.176 30.4972 122.893 30.334C122.628 30.1791 122.326 30.0966 122.019 30.0947H120.449C120.141 30.0938 119.839 30.1766 119.575 30.334C119.304 30.4904 119.075 30.7081 118.906 30.9693C118.735 31.2279 118.644 31.5302 118.643 31.8394C118.642 32.149 118.733 32.4519 118.906 32.7096C119.068 32.9815 119.293 33.2112 119.561 33.3796C119.826 33.5371 120.128 33.6198 120.436 33.6189H122.005C122.312 33.6162 122.612 33.5369 122.88 33.3883C123.16 33.2387 123.396 33.02 123.566 32.7531C123.741 32.4943 123.837 32.1905 123.842 31.8786Z" fill="#CCCCCC"/>
<path d="M124.878 26.675C124.879 26.8326 124.827 26.986 124.729 27.1101C124.694 27.1617 124.647 27.2047 124.592 27.2356C124.538 27.2665 124.477 27.2846 124.414 27.2884H118.014C117.949 27.2886 117.885 27.2722 117.829 27.241C117.772 27.2098 117.724 27.1647 117.69 27.1101C117.605 26.981 117.561 26.8294 117.563 26.675C117.555 26.5199 117.6 26.3665 117.69 26.2399C117.725 26.1868 117.773 26.1435 117.83 26.1138C117.887 26.0842 117.95 26.0692 118.014 26.0702H118.643C118.322 25.8743 118.047 25.6134 117.834 25.3045C117.583 24.9274 117.456 24.4818 117.471 24.0297C117.46 23.5572 117.614 23.0955 117.909 22.7244C118.196 22.3565 118.581 22.0749 119.019 21.9108C118.54 21.685 118.137 21.3271 117.856 20.8797C117.609 20.4887 117.477 20.0364 117.476 19.5744C117.472 19.1159 117.593 18.665 117.826 18.2692C118.071 17.8889 118.411 17.5786 118.814 17.3685C119.306 17.1037 119.859 16.9731 120.418 16.99H124.397C124.461 16.995 124.522 17.0149 124.577 17.0482C124.632 17.0814 124.678 17.1271 124.711 17.1814C124.806 17.3072 124.858 17.4595 124.86 17.6165C124.859 17.7738 124.807 17.9266 124.711 18.0516C124.677 18.1043 124.63 18.1483 124.576 18.18C124.521 18.2118 124.46 18.2304 124.397 18.2344H120.418C120.073 18.2218 119.731 18.3046 119.43 18.4736C119.174 18.6189 118.962 18.831 118.818 19.0871C118.687 19.3183 118.616 19.5787 118.613 19.8442C118.611 20.1197 118.685 20.3905 118.827 20.6273C118.973 20.8787 119.181 21.0896 119.43 21.2408C119.712 21.4132 120.039 21.4994 120.37 21.4888H124.41C124.48 21.4851 124.55 21.5022 124.611 21.5378C124.671 21.5733 124.72 21.6259 124.751 21.6889C124.824 21.8225 124.862 21.9721 124.862 22.124C124.862 22.2759 124.824 22.4255 124.751 22.5591C124.721 22.6237 124.673 22.6781 124.612 22.7153C124.552 22.7525 124.481 22.7708 124.41 22.7679H120.388C120.065 22.7612 119.745 22.8376 119.461 22.9898C119.205 23.1272 118.99 23.3281 118.835 23.5728C118.687 23.8105 118.61 24.0851 118.613 24.3647C118.612 24.6415 118.686 24.9134 118.827 25.1522C118.973 25.4063 119.185 25.6178 119.439 25.7656C119.736 25.9352 120.076 26.0182 120.418 26.0049H124.397C124.461 26.0099 124.522 26.0298 124.577 26.0631C124.632 26.0964 124.678 26.142 124.711 26.1964C124.821 26.3317 124.88 26.501 124.878 26.675Z" fill="#CCCCCC"/>
<path d="M33.6426 42.7513C32.7288 42.7855 31.828 42.5278 31.0719 42.016C30.3898 41.52 30.0444 40.9718 30.0444 40.3671V2.27549C30.0488 1.93363 30.1468 1.59944 30.3278 1.30888C30.5088 1.01832 30.7661 0.782398 31.0719 0.626521C31.8538 0.184467 32.7439 -0.0324557 33.6426 1.0829e-06C34.5774 -0.0320166 35.504 0.184229 36.327 0.626521C36.6451 0.772734 36.9157 1.00471 37.1082 1.29616C37.3006 1.58761 37.4071 1.92687 37.4156 2.27549V26.0963L48.2101 16.0328C48.3967 15.8458 48.6198 15.6987 48.8657 15.6007C49.1116 15.5027 49.375 15.4558 49.6398 15.4629C50.2435 15.4731 50.8306 15.6608 51.3274 16.0024C51.8679 16.3548 52.333 16.8103 52.6958 17.3424C53.0405 17.8243 53.2282 18.3999 53.2336 18.9914C53.2295 19.2342 53.1821 19.4743 53.0936 19.7006C52.9916 19.9564 52.8244 20.1813 52.6084 20.3532L45.8711 26.4183L54.3266 38.357C54.5695 38.7107 54.7074 39.1253 54.7244 39.5534C54.7006 40.1838 54.4581 40.7865 54.038 41.259C53.5815 41.8255 53.0188 42.2984 52.381 42.6512C51.8103 42.99 51.1611 43.1759 50.4967 43.1907C50.1347 43.1977 49.7769 43.1126 49.4571 42.9436C49.1373 42.7746 48.8661 42.5272 48.6692 42.2249L41.0138 30.9867L37.4156 34.1671V40.3671C37.4156 40.9733 37.0528 41.5229 36.327 42.016C35.5289 42.5286 34.5919 42.7853 33.6426 42.7513Z" fill="#FFA403"/>
<path d="M61.8073 9.72412C60.7464 9.74045 59.7214 9.34211 58.9523 8.61466C58.5869 8.31084 58.2909 7.93276 58.0843 7.50579C57.8777 7.07881 57.7652 6.61281 57.7544 6.13903C57.7529 5.65559 57.8596 5.17789 58.0668 4.74063C58.274 4.30337 58.5765 3.91755 58.9523 3.6112C59.7373 2.91588 60.7565 2.54001 61.8073 2.55829C62.8508 2.53618 63.8631 2.913 64.6359 3.6112C65.0056 3.92127 65.3021 4.30845 65.5046 4.7453C65.7071 5.18214 65.8105 5.65796 65.8076 6.13903C65.7984 6.6105 65.6893 7.07472 65.4874 7.50133C65.2855 7.92793 64.9953 8.30732 64.6359 8.61466C64.262 8.97706 63.8193 9.26179 63.3336 9.45227C62.848 9.64274 62.3291 9.73516 61.8073 9.72412ZM61.8073 42.7513C60.8765 42.7906 59.9574 42.533 59.1841 42.016C58.4991 41.52 58.1566 40.9704 58.1566 40.3671V18.0212C58.161 17.6793 58.259 17.3451 58.44 17.0546C58.6211 16.764 58.8783 16.5281 59.1841 16.3722C59.9848 15.9299 60.8921 15.7147 61.8073 15.75C62.7215 15.724 63.6264 15.9386 64.4305 16.3722C64.7483 16.5188 65.0186 16.7509 65.211 17.0423C65.4033 17.3336 65.51 17.6727 65.5191 18.0212V40.3671C65.5191 40.9733 65.1562 41.5229 64.4305 42.016C63.6523 42.5225 62.7367 42.7792 61.8073 42.7513Z" fill="#95B65B"/>
<path d="M74.831 42.7513C73.9289 42.7842 73.0364 42.5576 72.2603 42.0987C71.9549 41.9356 71.6987 41.6944 71.5181 41.3999C71.3375 41.1055 71.2391 40.7685 71.2329 40.4236V11.1425C71.2018 9.15383 71.6738 7.18933 72.6057 5.42985C73.4596 3.81201 74.7185 2.44081 76.2607 1.44883C77.7599 0.490623 79.5068 -0.0127816 81.2885 2.93739e-06H84.6593C85.0601 -0.023245 85.4604 0.0528258 85.8244 0.221398C86.1883 0.38997 86.5046 0.645775 86.7448 0.965888C87.2079 1.58686 87.458 2.33968 87.458 3.11303C87.458 3.88637 87.2079 4.63919 86.7448 5.26016C86.4997 5.57298 86.1817 5.82164 85.8183 5.98464C85.455 6.14763 85.0571 6.22004 84.6593 6.19559H82.8318C82.0717 6.18414 81.3206 6.36054 80.6458 6.70899C80.02 7.03746 79.5002 7.53516 79.1462 8.14477C78.764 8.81496 78.5721 9.57593 78.591 10.3463V15.75H85.5862C85.8732 15.7436 86.1564 15.8171 86.4036 15.9625C86.6509 16.1078 86.8523 16.319 86.9852 16.5723C87.3035 17.1364 87.4706 17.7724 87.4706 18.4193C87.4706 19.0661 87.3035 19.7022 86.9852 20.2662C86.8533 20.5206 86.6522 20.7331 86.4049 20.8792C86.1575 21.0254 85.8738 21.0994 85.5862 21.0929H78.591V40.4236C78.5789 40.7781 78.4683 41.1223 78.2715 41.418C78.0747 41.7137 77.7994 41.9493 77.4761 42.0987C76.6695 42.549 75.7557 42.7745 74.831 42.7513Z" fill="#95B65B"/>
<path d="M95.1697 43.2647C93.2521 43.3101 91.3847 42.652 89.9233 41.4156C88.466 40.1829 87.7373 38.2786 87.7373 35.7029C87.7373 33.5449 88.2984 31.8583 89.4205 30.6429C90.6948 29.3485 92.3256 28.4584 94.1073 28.0846C96.3819 27.5617 98.7114 27.3134 101.046 27.345H103.389V26.6054C103.388 25.7681 103.223 24.9391 102.904 24.1645C102.583 23.3719 102.049 22.6825 101.36 22.1719C100.655 21.6411 99.6554 21.3757 98.3613 21.3757C97.2313 21.3349 96.1024 21.4819 95.0211 21.8107C94.3845 22.02 93.7788 22.3126 93.2198 22.6809C92.8218 22.9705 92.3399 23.1232 91.847 23.116C91.4553 23.1166 91.0719 23.0043 90.743 22.7928C90.414 22.5812 90.1536 22.2794 89.9933 21.9239C89.5658 21.1788 89.3385 20.3366 89.3331 19.4787C89.3331 18.6825 89.8228 17.9733 90.7933 17.3468C91.8921 16.6674 93.0982 16.1776 94.3609 15.898C95.7069 15.5651 97.088 15.3927 98.475 15.3846C101.448 15.3846 103.829 15.9154 105.619 16.977C107.308 17.9244 108.678 19.3492 109.554 21.0711C110.375 22.7528 110.796 24.6006 110.782 26.4705V40.3453C110.773 40.6942 110.674 41.0348 110.493 41.3338C110.312 41.6327 110.056 41.8798 109.75 42.0508C108.981 42.5275 108.085 42.7639 107.18 42.7295C106.337 42.7618 105.506 42.5239 104.81 42.0508C104.523 41.8666 104.287 41.6142 104.123 41.3164C103.959 41.0186 103.872 40.6849 103.87 40.3453V38.7746C102.809 39.9753 101.588 41.0263 100.241 41.8985C98.7255 42.8471 96.9593 43.3229 95.1697 43.2647ZM98.1427 37.8088C99.0049 37.7888 99.8411 37.5114 100.543 37.0126C101.351 36.4734 102.039 35.7762 102.567 34.9633C103.101 34.1957 103.39 33.2862 103.398 32.3528V31.1563H102.523C101.32 31.1521 100.118 31.2277 98.9253 31.3826C97.932 31.4783 96.9789 31.8209 96.1534 32.3789C95.7948 32.6542 95.5104 33.0137 95.3257 33.4253C95.141 33.8368 95.0619 34.2876 95.0954 34.7371C95.0954 35.7987 95.3869 36.576 95.9698 37.0691C96.5784 37.5725 97.3517 37.8357 98.1427 37.8088Z" fill="#6060DF"/>
</g>
<defs>
<clipPath id="clip0">
<rect width="125" height="44" fill="white"/>
</clipPath>
</defs>
</svg>
